<?xml version="1.0" standalone="no"?>
<svg xmlns="http://www.w3.org/2000/svg" version="1.1" width="296" height="296">
	<!-- Created with https://api.qrserver.com (QR Code API, see goQR.me/api for information) -->
	<title>QR Code</title>
	<desc>https://circles.gnosis.io/playground?url=https%3A%2F%2Fcircles-jukebox.vercel.app%2F</desc>
	<rect style="fill:rgb(255, 255, 255);fill-opacity:1" x="0" y="0" width="296" height="296" />
	<g id="elements">
		<path style="fill:rgb(0, 0, 0)" d="M 0,0 l 8,0 0,8 -8,0 z M 8,0 l 8,0 0,8 -8,0 z M 16,0 l 8,0 0,8 -8,0 z M 24,0 l 8,0 0,8 -8,0 z M 32,0 l 8,0 0,8 -8,0 z M 40,0 l 8,0 0,8 -8,0 z M 48,0 l 8,0 0,8 -8,0 z M 72,0 l 8,0 0,8 -8,0 z M 120,0 l 8,0 0,8 -8,0 z M 128,0 l 8,0 0,8 -8,0 z M 136,0 l 8,0 0,8 -8,0 z M 144,0 l 8,0 0,8 -8,0 z M 160,0 l 8,0 0,8 -8,0 z M 168,0 l 8,0 0,8 -8,0 z M 192,0 l 8,0 0,8 -8,0 z M 200,0 l 8,0 0,8 -8,0 z M 224,0 l 8,0 0,8 -8,0 z M 240,0 l 8,0 0,8 -8,0 z M 248,0 l 8,0 0,8 -8,0 z M 256,0 l 8,0 0,8 -8,0 z M 264,0 l 8,0 0,8 -8,0 z M 272,0 l 8,0 0,8 -8,0 z M 280,0 l 8,0 0,8 -8,0 z M 288,0 l 8,0 0,8 -8,0 z M 0,8 l 8,0 0,8 -8,0 z M 48,8 l 8,0 0,8 -8,0 z M 64,8 l 8,0 0,8 -8,0 z M 72,8 l 8,0 0,8 -8,0 z M 88,8 l 8,0 0,8 -8,0 z M 96,8 l 8,0 0,8 -8,0 z M 168,8 l 8,0 0,8 -8,0 z M 200,8 l 8,0 0,8 -8,0 z M 208,8 l 8,0 0,8 -8,0 z M 216,8 l 8,0 0,8 -8,0 z M 240,8 l 8,0 0,8 -8,0 z M 288,8 l 8,0 0,8 -8,0 z M 0,16 l 8,0 0,8 -8,0 z M 16,16 l 8,0 0,8 -8,0 z M 24,16 l 8,0 0,8 -8,0 z M 32,16 l 8,0 0,8 -8,0 z M 48,16 l 8,0 0,8 -8,0 z M 72,16 l 8,0 0,8 -8,0 z M 80,16 l 8,0 0,8 -8,0 z M 88,16 l 8,0 0,8 -8,0 z M 112,16 l 8,0 0,8 -8,0 z M 128,16 l 8,0 0,8 -8,0 z M 136,16 l 8,0 0,8 -8,0 z M 160,16 l 8,0 0,8 -8,0 z M 176,16 l 8,0 0,8 -8,0 z M 208,16 l 8,0 0,8 -8,0 z M 240,16 l 8,0 0,8 -8,0 z M 256,16 l 8,0 0,8 -8,0 z M 264,16 l 8,0 0,8 -8,0 z M 272,16 l 8,0 0,8 -8,0 z M 288,16 l 8,0 0,8 -8,0 z M 0,24 l 8,0 0,8 -8,0 z M 16,24 l 8,0 0,8 -8,0 z M 24,24 l 8,0 0,8 -8,0 z M 32,24 l 8,0 0,8 -8,0 z M 48,24 l 8,0 0,8 -8,0 z M 64,24 l 8,0 0,8 -8,0 z M 72,24 l 8,0 0,8 -8,0 z M 88,24 l 8,0 0,8 -8,0 z M 136,24 l 8,0 0,8 -8,0 z M 152,24 l 8,0 0,8 -8,0 z M 184,24 l 8,0 0,8 -8,0 z M 200,24 l 8,0 0,8 -8,0 z M 208,24 l 8,0 0,8 -8,0 z M 216,24 l 8,0 0,8 -8,0 z M 224,24 l 8,0 0,8 -8,0 z M 240,24 l 8,0 0,8 -8,0 z M 256,24 l 8,0 0,8 -8,0 z M 264,24 l 8,0 0,8 -8,0 z M 272,24 l 8,0 0,8 -8,0 z M 288,24 l 8,0 0,8 -8,0 z M 0,32 l 8,0 0,8 -8,0 z M 16,32 l 8,0 0,8 -8,0 z M 24,32 l 8,0 0,8 -8,0 z M 32,32 l 8,0 0,8 -8,0 z M 48,32 l 8,0 0,8 -8,0 z M 80,32 l 8,0 0,8 -8,0 z M 96,32 l 8,0 0,8 -8,0 z M 104,32 l 8,0 0,8 -8,0 z M 112,32 l 8,0 0,8 -8,0 z M 120,32 l 8,0 0,8 -8,0 z M 136,32 l 8,0 0,8 -8,0 z M 144,32 l 8,0 0,8 -8,0 z M 152,32 l 8,0 0,8 -8,0 z M 168,32 l 8,0 0,8 -8,0 z M 184,32 l 8,0 0,8 -8,0 z M 192,32 l 8,0 0,8 -8,0 z M 208,32 l 8,0 0,8 -8,0 z M 224,32 l 8,0 0,8 -8,0 z M 240,32 l 8,0 0,8 -8,0 z M 256,32 l 8,0 0,8 -8,0 z M 264,32 l 8,0 0,8 -8,0 z M 272,32 l 8,0 0,8 -8,0 z M 288,32 l 8,0 0,8 -8,0 z M 0,40 l 8,0 0,8 -8,0 z M 48,40 l 8,0 0,8 -8,0 z M 64,40 l 8,0 0,8 -8,0 z M 80,40 l 8,0 0,8 -8,0 z M 104,40 l 8,0 0,8 -8,0 z M 112,40 l 8,0 0,8 -8,0 z M 120,40 l 8,0 0,8 -8,0 z M 136,40 l 8,0 0,8 -8,0 z M 152,40 l 8,0 0,8 -8,0 z M 176,40 l 8,0 0,8 -8,0 z M 208,40 l 8,0 0,8 -8,0 z M 216,40 l 8,0 0,8 -8,0 z M 224,40 l 8,0 0,8 -8,0 z M 240,40 l 8,0 0,8 -8,0 z M 288,40 l 8,0 0,8 -8,0 z M 0,48 l 8,0 0,8 -8,0 z M 8,48 l 8,0 0,8 -8,0 z M 16,48 l 8,0 0,8 -8,0 z M 24,48 l 8,0 0,8 -8,0 z M 32,48 l 8,0 0,8 -8,0 z M 40,48 l 8,0 0,8 -8,0 z M 48,48 l 8,0 0,8 -8,0 z M 64,48 l 8,0 0,8 -8,0 z M 80,48 l 8,0 0,8 -8,0 z M 96,48 l 8,0 0,8 -8,0 z M 112,48 l 8,0 0,8 -8,0 z M 128,48 l 8,0 0,8 -8,0 z M 144,48 l 8,0 0,8 -8,0 z M 160,48 l 8,0 0,8 -8,0 z M 176,48 l 8,0 0,8 -8,0 z M 192,48 l 8,0 0,8 -8,0 z M 208,48 l 8,0 0,8 -8,0 z M 224,48 l 8,0 0,8 -8,0 z M 240,48 l 8,0 0,8 -8,0 z M 248,48 l 8,0 0,8 -8,0 z M 256,48 l 8,0 0,8 -8,0 z M 264,48 l 8,0 0,8 -8,0 z M 272,48 l 8,0 0,8 -8,0 z M 280,48 l 8,0 0,8 -8,0 z M 288,48 l 8,0 0,8 -8,0 z M 96,56 l 8,0 0,8 -8,0 z M 104,56 l 8,0 0,8 -8,0 z M 120,56 l 8,0 0,8 -8,0 z M 160,56 l 8,0 0,8 -8,0 z M 168,56 l 8,0 0,8 -8,0 z M 176,56 l 8,0 0,8 -8,0 z M 192,56 l 8,0 0,8 -8,0 z M 208,56 l 8,0 0,8 -8,0 z M 224,56 l 8,0 0,8 -8,0 z M 0,64 l 8,0 0,8 -8,0 z M 8,64 l 8,0 0,8 -8,0 z M 16,64 l 8,0 0,8 -8,0 z M 24,64 l 8,0 0,8 -8,0 z M 32,64 l 8,0 0,8 -8,0 z M 48,64 l 8,0 0,8 -8,0 z M 56,64 l 8,0 0,8 -8,0 z M 64,64 l 8,0 0,8 -8,0 z M 72,64 l 8,0 0,8 -8,0 z M 80,64 l 8,0 0,8 -8,0 z M 96,64 l 8,0 0,8 -8,0 z M 112,64 l 8,0 0,8 -8,0 z M 120,64 l 8,0 0,8 -8,0 z M 144,64 l 8,0 0,8 -8,0 z M 152,64 l 8,0 0,8 -8,0 z M 168,64 l 8,0 0,8 -8,0 z M 176,64 l 8,0 0,8 -8,0 z M 200,64 l 8,0 0,8 -8,0 z M 208,64 l 8,0 0,8 -8,0 z M 216,64 l 8,0 0,8 -8,0 z M 232,64 l 8,0 0,8 -8,0 z M 248,64 l 8,0 0,8 -8,0 z M 264,64 l 8,0 0,8 -8,0 z M 280,64 l 8,0 0,8 -8,0 z M 0,72 l 8,0 0,8 -8,0 z M 24,72 l 8,0 0,8 -8,0 z M 32,72 l 8,0 0,8 -8,0 z M 72,72 l 8,0 0,8 -8,0 z M 120,72 l 8,0 0,8 -8,0 z M 128,72 l 8,0 0,8 -8,0 z M 144,72 l 8,0 0,8 -8,0 z M 152,72 l 8,0 0,8 -8,0 z M 160,72 l 8,0 0,8 -8,0 z M 176,72 l 8,0 0,8 -8,0 z M 184,72 l 8,0 0,8 -8,0 z M 192,72 l 8,0 0,8 -8,0 z M 200,72 l 8,0 0,8 -8,0 z M 224,72 l 8,0 0,8 -8,0 z M 248,72 l 8,0 0,8 -8,0 z M 264,72 l 8,0 0,8 -8,0 z M 272,72 l 8,0 0,8 -8,0 z M 280,72 l 8,0 0,8 -8,0 z M 16,80 l 8,0 0,8 -8,0 z M 24,80 l 8,0 0,8 -8,0 z M 32,80 l 8,0 0,8 -8,0 z M 40,80 l 8,0 0,8 -8,0 z M 48,80 l 8,0 0,8 -8,0 z M 56,80 l 8,0 0,8 -8,0 z M 64,80 l 8,0 0,8 -8,0 z M 72,80 l 8,0 0,8 -8,0 z M 80,80 l 8,0 0,8 -8,0 z M 88,80 l 8,0 0,8 -8,0 z M 96,80 l 8,0 0,8 -8,0 z M 160,80 l 8,0 0,8 -8,0 z M 168,80 l 8,0 0,8 -8,0 z M 184,80 l 8,0 0,8 -8,0 z M 192,80 l 8,0 0,8 -8,0 z M 200,80 l 8,0 0,8 -8,0 z M 208,80 l 8,0 0,8 -8,0 z M 216,80 l 8,0 0,8 -8,0 z M 224,80 l 8,0 0,8 -8,0 z M 232,80 l 8,0 0,8 -8,0 z M 256,80 l 8,0 0,8 -8,0 z M 264,80 l 8,0 0,8 -8,0 z M 272,80 l 8,0 0,8 -8,0 z M 288,80 l 8,0 0,8 -8,0 z M 8,88 l 8,0 0,8 -8,0 z M 16,88 l 8,0 0,8 -8,0 z M 40,88 l 8,0 0,8 -8,0 z M 64,88 l 8,0 0,8 -8,0 z M 72,88 l 8,0 0,8 -8,0 z M 80,88 l 8,0 0,8 -8,0 z M 88,88 l 8,0 0,8 -8,0 z M 112,88 l 8,0 0,8 -8,0 z M 120,88 l 8,0 0,8 -8,0 z M 136,88 l 8,0 0,8 -8,0 z M 160,88 l 8,0 0,8 -8,0 z M 168,88 l 8,0 0,8 -8,0 z M 184,88 l 8,0 0,8 -8,0 z M 216,88 l 8,0 0,8 -8,0 z M 232,88 l 8,0 0,8 -8,0 z M 248,88 l 8,0 0,8 -8,0 z M 256,88 l 8,0 0,8 -8,0 z M 264,88 l 8,0 0,8 -8,0 z M 280,88 l 8,0 0,8 -8,0 z M 8,96 l 8,0 0,8 -8,0 z M 16,96 l 8,0 0,8 -8,0 z M 40,96 l 8,0 0,8 -8,0 z M 48,96 l 8,0 0,8 -8,0 z M 56,96 l 8,0 0,8 -8,0 z M 72,96 l 8,0 0,8 -8,0 z M 80,96 l 8,0 0,8 -8,0 z M 88,96 l 8,0 0,8 -8,0 z M 152,96 l 8,0 0,8 -8,0 z M 168,96 l 8,0 0,8 -8,0 z M 184,96 l 8,0 0,8 -8,0 z M 192,96 l 8,0 0,8 -8,0 z M 200,96 l 8,0 0,8 -8,0 z M 208,96 l 8,0 0,8 -8,0 z M 224,96 l 8,0 0,8 -8,0 z M 232,96 l 8,0 0,8 -8,0 z M 240,96 l 8,0 0,8 -8,0 z M 256,96 l 8,0 0,8 -8,0 z M 264,96 l 8,0 0,8 -8,0 z M 272,96 l 8,0 0,8 -8,0 z M 288,96 l 8,0 0,8 -8,0 z M 0,104 l 8,0 0,8 -8,0 z M 8,104 l 8,0 0,8 -8,0 z M 24,104 l 8,0 0,8 -8,0 z M 32,104 l 8,0 0,8 -8,0 z M 40,104 l 8,0 0,8 -8,0 z M 56,104 l 8,0 0,8 -8,0 z M 64,104 l 8,0 0,8 -8,0 z M 80,104 l 8,0 0,8 -8,0 z M 96,104 l 8,0 0,8 -8,0 z M 104,104 l 8,0 0,8 -8,0 z M 112,104 l 8,0 0,8 -8,0 z M 120,104 l 8,0 0,8 -8,0 z M 128,104 l 8,0 0,8 -8,0 z M 136,104 l 8,0 0,8 -8,0 z M 144,104 l 8,0 0,8 -8,0 z M 152,104 l 8,0 0,8 -8,0 z M 176,104 l 8,0 0,8 -8,0 z M 224,104 l 8,0 0,8 -8,0 z M 232,104 l 8,0 0,8 -8,0 z M 248,104 l 8,0 0,8 -8,0 z M 272,104 l 8,0 0,8 -8,0 z M 280,104 l 8,0 0,8 -8,0 z M 0,112 l 8,0 0,8 -8,0 z M 8,112 l 8,0 0,8 -8,0 z M 16,112 l 8,0 0,8 -8,0 z M 24,112 l 8,0 0,8 -8,0 z M 40,112 l 8,0 0,8 -8,0 z M 48,112 l 8,0 0,8 -8,0 z M 56,112 l 8,0 0,8 -8,0 z M 64,112 l 8,0 0,8 -8,0 z M 80,112 l 8,0 0,8 -8,0 z M 104,112 l 8,0 0,8 -8,0 z M 112,112 l 8,0 0,8 -8,0 z M 120,112 l 8,0 0,8 -8,0 z M 136,112 l 8,0 0,8 -8,0 z M 152,112 l 8,0 0,8 -8,0 z M 176,112 l 8,0 0,8 -8,0 z M 192,112 l 8,0 0,8 -8,0 z M 208,112 l 8,0 0,8 -8,0 z M 216,112 l 8,0 0,8 -8,0 z M 224,112 l 8,0 0,8 -8,0 z M 240,112 l 8,0 0,8 -8,0 z M 248,112 l 8,0 0,8 -8,0 z M 256,112 l 8,0 0,8 -8,0 z M 272,112 l 8,0 0,8 -8,0 z M 280,112 l 8,0 0,8 -8,0 z M 288,112 l 8,0 0,8 -8,0 z M 8,120 l 8,0 0,8 -8,0 z M 24,120 l 8,0 0,8 -8,0 z M 64,120 l 8,0 0,8 -8,0 z M 72,120 l 8,0 0,8 -8,0 z M 96,120 l 8,0 0,8 -8,0 z M 104,120 l 8,0 0,8 -8,0 z M 128,120 l 8,0 0,8 -8,0 z M 136,120 l 8,0 0,8 -8,0 z M 144,120 l 8,0 0,8 -8,0 z M 152,120 l 8,0 0,8 -8,0 z M 160,120 l 8,0 0,8 -8,0 z M 192,120 l 8,0 0,8 -8,0 z M 216,120 l 8,0 0,8 -8,0 z M 232,120 l 8,0 0,8 -8,0 z M 248,120 l 8,0 0,8 -8,0 z M 264,120 l 8,0 0,8 -8,0 z M 288,120 l 8,0 0,8 -8,0 z M 0,128 l 8,0 0,8 -8,0 z M 24,128 l 8,0 0,8 -8,0 z M 48,128 l 8,0 0,8 -8,0 z M 72,128 l 8,0 0,8 -8,0 z M 96,128 l 8,0 0,8 -8,0 z M 112,128 l 8,0 0,8 -8,0 z M 120,128 l 8,0 0,8 -8,0 z M 152,128 l 8,0 0,8 -8,0 z M 168,128 l 8,0 0,8 -8,0 z M 192,128 l 8,0 0,8 -8,0 z M 200,128 l 8,0 0,8 -8,0 z M 216,128 l 8,0 0,8 -8,0 z M 232,128 l 8,0 0,8 -8,0 z M 240,128 l 8,0 0,8 -8,0 z M 256,128 l 8,0 0,8 -8,0 z M 264,128 l 8,0 0,8 -8,0 z M 272,128 l 8,0 0,8 -8,0 z M 288,128 l 8,0 0,8 -8,0 z M 16,136 l 8,0 0,8 -8,0 z M 40,136 l 8,0 0,8 -8,0 z M 56,136 l 8,0 0,8 -8,0 z M 80,136 l 8,0 0,8 -8,0 z M 136,136 l 8,0 0,8 -8,0 z M 144,136 l 8,0 0,8 -8,0 z M 160,136 l 8,0 0,8 -8,0 z M 168,136 l 8,0 0,8 -8,0 z M 184,136 l 8,0 0,8 -8,0 z M 192,136 l 8,0 0,8 -8,0 z M 200,136 l 8,0 0,8 -8,0 z M 208,136 l 8,0 0,8 -8,0 z M 224,136 l 8,0 0,8 -8,0 z M 248,136 l 8,0 0,8 -8,0 z M 272,136 l 8,0 0,8 -8,0 z M 280,136 l 8,0 0,8 -8,0 z M 0,144 l 8,0 0,8 -8,0 z M 24,144 l 8,0 0,8 -8,0 z M 48,144 l 8,0 0,8 -8,0 z M 56,144 l 8,0 0,8 -8,0 z M 72,144 l 8,0 0,8 -8,0 z M 80,144 l 8,0 0,8 -8,0 z M 88,144 l 8,0 0,8 -8,0 z M 96,144 l 8,0 0,8 -8,0 z M 160,144 l 8,0 0,8 -8,0 z M 200,144 l 8,0 0,8 -8,0 z M 208,144 l 8,0 0,8 -8,0 z M 216,144 l 8,0 0,8 -8,0 z M 256,144 l 8,0 0,8 -8,0 z M 272,144 l 8,0 0,8 -8,0 z M 280,144 l 8,0 0,8 -8,0 z M 288,144 l 8,0 0,8 -8,0 z M 0,152 l 8,0 0,8 -8,0 z M 24,152 l 8,0 0,8 -8,0 z M 40,152 l 8,0 0,8 -8,0 z M 56,152 l 8,0 0,8 -8,0 z M 64,152 l 8,0 0,8 -8,0 z M 88,152 l 8,0 0,8 -8,0 z M 112,152 l 8,0 0,8 -8,0 z M 120,152 l 8,0 0,8 -8,0 z M 128,152 l 8,0 0,8 -8,0 z M 136,152 l 8,0 0,8 -8,0 z M 144,152 l 8,0 0,8 -8,0 z M 160,152 l 8,0 0,8 -8,0 z M 176,152 l 8,0 0,8 -8,0 z M 184,152 l 8,0 0,8 -8,0 z M 192,152 l 8,0 0,8 -8,0 z M 208,152 l 8,0 0,8 -8,0 z M 216,152 l 8,0 0,8 -8,0 z M 224,152 l 8,0 0,8 -8,0 z M 232,152 l 8,0 0,8 -8,0 z M 240,152 l 8,0 0,8 -8,0 z M 248,152 l 8,0 0,8 -8,0 z M 256,152 l 8,0 0,8 -8,0 z M 288,152 l 8,0 0,8 -8,0 z M 8,160 l 8,0 0,8 -8,0 z M 24,160 l 8,0 0,8 -8,0 z M 32,160 l 8,0 0,8 -8,0 z M 48,160 l 8,0 0,8 -8,0 z M 56,160 l 8,0 0,8 -8,0 z M 64,160 l 8,0 0,8 -8,0 z M 80,160 l 8,0 0,8 -8,0 z M 88,160 l 8,0 0,8 -8,0 z M 120,160 l 8,0 0,8 -8,0 z M 136,160 l 8,0 0,8 -8,0 z M 144,160 l 8,0 0,8 -8,0 z M 152,160 l 8,0 0,8 -8,0 z M 200,160 l 8,0 0,8 -8,0 z M 208,160 l 8,0 0,8 -8,0 z M 232,160 l 8,0 0,8 -8,0 z M 240,160 l 8,0 0,8 -8,0 z M 256,160 l 8,0 0,8 -8,0 z M 264,160 l 8,0 0,8 -8,0 z M 272,160 l 8,0 0,8 -8,0 z M 280,160 l 8,0 0,8 -8,0 z M 288,160 l 8,0 0,8 -8,0 z M 0,168 l 8,0 0,8 -8,0 z M 16,168 l 8,0 0,8 -8,0 z M 56,168 l 8,0 0,8 -8,0 z M 64,168 l 8,0 0,8 -8,0 z M 72,168 l 8,0 0,8 -8,0 z M 96,168 l 8,0 0,8 -8,0 z M 104,168 l 8,0 0,8 -8,0 z M 112,168 l 8,0 0,8 -8,0 z M 120,168 l 8,0 0,8 -8,0 z M 136,168 l 8,0 0,8 -8,0 z M 144,168 l 8,0 0,8 -8,0 z M 152,168 l 8,0 0,8 -8,0 z M 184,168 l 8,0 0,8 -8,0 z M 208,168 l 8,0 0,8 -8,0 z M 224,168 l 8,0 0,8 -8,0 z M 232,168 l 8,0 0,8 -8,0 z M 264,168 l 8,0 0,8 -8,0 z M 280,168 l 8,0 0,8 -8,0 z M 0,176 l 8,0 0,8 -8,0 z M 24,176 l 8,0 0,8 -8,0 z M 48,176 l 8,0 0,8 -8,0 z M 56,176 l 8,0 0,8 -8,0 z M 72,176 l 8,0 0,8 -8,0 z M 104,176 l 8,0 0,8 -8,0 z M 112,176 l 8,0 0,8 -8,0 z M 120,176 l 8,0 0,8 -8,0 z M 136,176 l 8,0 0,8 -8,0 z M 152,176 l 8,0 0,8 -8,0 z M 160,176 l 8,0 0,8 -8,0 z M 168,176 l 8,0 0,8 -8,0 z M 176,176 l 8,0 0,8 -8,0 z M 192,176 l 8,0 0,8 -8,0 z M 208,176 l 8,0 0,8 -8,0 z M 216,176 l 8,0 0,8 -8,0 z M 240,176 l 8,0 0,8 -8,0 z M 248,176 l 8,0 0,8 -8,0 z M 256,176 l 8,0 0,8 -8,0 z M 272,176 l 8,0 0,8 -8,0 z M 280,176 l 8,0 0,8 -8,0 z M 288,176 l 8,0 0,8 -8,0 z M 0,184 l 8,0 0,8 -8,0 z M 24,184 l 8,0 0,8 -8,0 z M 40,184 l 8,0 0,8 -8,0 z M 72,184 l 8,0 0,8 -8,0 z M 80,184 l 8,0 0,8 -8,0 z M 96,184 l 8,0 0,8 -8,0 z M 104,184 l 8,0 0,8 -8,0 z M 128,184 l 8,0 0,8 -8,0 z M 144,184 l 8,0 0,8 -8,0 z M 160,184 l 8,0 0,8 -8,0 z M 168,184 l 8,0 0,8 -8,0 z M 192,184 l 8,0 0,8 -8,0 z M 208,184 l 8,0 0,8 -8,0 z M 216,184 l 8,0 0,8 -8,0 z M 232,184 l 8,0 0,8 -8,0 z M 288,184 l 8,0 0,8 -8,0 z M 0,192 l 8,0 0,8 -8,0 z M 8,192 l 8,0 0,8 -8,0 z M 16,192 l 8,0 0,8 -8,0 z M 24,192 l 8,0 0,8 -8,0 z M 40,192 l 8,0 0,8 -8,0 z M 48,192 l 8,0 0,8 -8,0 z M 64,192 l 8,0 0,8 -8,0 z M 80,192 l 8,0 0,8 -8,0 z M 96,192 l 8,0 0,8 -8,0 z M 112,192 l 8,0 0,8 -8,0 z M 176,192 l 8,0 0,8 -8,0 z M 200,192 l 8,0 0,8 -8,0 z M 208,192 l 8,0 0,8 -8,0 z M 216,192 l 8,0 0,8 -8,0 z M 224,192 l 8,0 0,8 -8,0 z M 240,192 l 8,0 0,8 -8,0 z M 248,192 l 8,0 0,8 -8,0 z M 256,192 l 8,0 0,8 -8,0 z M 264,192 l 8,0 0,8 -8,0 z M 272,192 l 8,0 0,8 -8,0 z M 280,192 l 8,0 0,8 -8,0 z M 288,192 l 8,0 0,8 -8,0 z M 0,200 l 8,0 0,8 -8,0 z M 8,200 l 8,0 0,8 -8,0 z M 16,200 l 8,0 0,8 -8,0 z M 24,200 l 8,0 0,8 -8,0 z M 56,200 l 8,0 0,8 -8,0 z M 64,200 l 8,0 0,8 -8,0 z M 120,200 l 8,0 0,8 -8,0 z M 136,200 l 8,0 0,8 -8,0 z M 144,200 l 8,0 0,8 -8,0 z M 152,200 l 8,0 0,8 -8,0 z M 160,200 l 8,0 0,8 -8,0 z M 184,200 l 8,0 0,8 -8,0 z M 208,200 l 8,0 0,8 -8,0 z M 224,200 l 8,0 0,8 -8,0 z M 248,200 l 8,0 0,8 -8,0 z M 264,200 l 8,0 0,8 -8,0 z M 272,200 l 8,0 0,8 -8,0 z M 280,200 l 8,0 0,8 -8,0 z M 0,208 l 8,0 0,8 -8,0 z M 32,208 l 8,0 0,8 -8,0 z M 48,208 l 8,0 0,8 -8,0 z M 56,208 l 8,0 0,8 -8,0 z M 64,208 l 8,0 0,8 -8,0 z M 72,208 l 8,0 0,8 -8,0 z M 88,208 l 8,0 0,8 -8,0 z M 96,208 l 8,0 0,8 -8,0 z M 120,208 l 8,0 0,8 -8,0 z M 168,208 l 8,0 0,8 -8,0 z M 176,208 l 8,0 0,8 -8,0 z M 192,208 l 8,0 0,8 -8,0 z M 200,208 l 8,0 0,8 -8,0 z M 216,208 l 8,0 0,8 -8,0 z M 224,208 l 8,0 0,8 -8,0 z M 232,208 l 8,0 0,8 -8,0 z M 248,208 l 8,0 0,8 -8,0 z M 280,208 l 8,0 0,8 -8,0 z M 288,208 l 8,0 0,8 -8,0 z M 0,216 l 8,0 0,8 -8,0 z M 24,216 l 8,0 0,8 -8,0 z M 64,216 l 8,0 0,8 -8,0 z M 80,216 l 8,0 0,8 -8,0 z M 88,216 l 8,0 0,8 -8,0 z M 112,216 l 8,0 0,8 -8,0 z M 128,216 l 8,0 0,8 -8,0 z M 144,216 l 8,0 0,8 -8,0 z M 152,216 l 8,0 0,8 -8,0 z M 160,216 l 8,0 0,8 -8,0 z M 168,216 l 8,0 0,8 -8,0 z M 176,216 l 8,0 0,8 -8,0 z M 224,216 l 8,0 0,8 -8,0 z M 248,216 l 8,0 0,8 -8,0 z M 288,216 l 8,0 0,8 -8,0 z M 0,224 l 8,0 0,8 -8,0 z M 48,224 l 8,0 0,8 -8,0 z M 56,224 l 8,0 0,8 -8,0 z M 72,224 l 8,0 0,8 -8,0 z M 80,224 l 8,0 0,8 -8,0 z M 88,224 l 8,0 0,8 -8,0 z M 136,224 l 8,0 0,8 -8,0 z M 152,224 l 8,0 0,8 -8,0 z M 200,224 l 8,0 0,8 -8,0 z M 208,224 l 8,0 0,8 -8,0 z M 224,224 l 8,0 0,8 -8,0 z M 232,224 l 8,0 0,8 -8,0 z M 240,224 l 8,0 0,8 -8,0 z M 248,224 l 8,0 0,8 -8,0 z M 256,224 l 8,0 0,8 -8,0 z M 272,224 l 8,0 0,8 -8,0 z M 64,232 l 8,0 0,8 -8,0 z M 96,232 l 8,0 0,8 -8,0 z M 104,232 l 8,0 0,8 -8,0 z M 112,232 l 8,0 0,8 -8,0 z M 136,232 l 8,0 0,8 -8,0 z M 144,232 l 8,0 0,8 -8,0 z M 152,232 l 8,0 0,8 -8,0 z M 184,232 l 8,0 0,8 -8,0 z M 200,232 l 8,0 0,8 -8,0 z M 216,232 l 8,0 0,8 -8,0 z M 224,232 l 8,0 0,8 -8,0 z M 256,232 l 8,0 0,8 -8,0 z M 264,232 l 8,0 0,8 -8,0 z M 0,240 l 8,0 0,8 -8,0 z M 8,240 l 8,0 0,8 -8,0 z M 16,240 l 8,0 0,8 -8,0 z M 24,240 l 8,0 0,8 -8,0 z M 32,240 l 8,0 0,8 -8,0 z M 40,240 l 8,0 0,8 -8,0 z M 48,240 l 8,0 0,8 -8,0 z M 64,240 l 8,0 0,8 -8,0 z M 72,240 l 8,0 0,8 -8,0 z M 80,240 l 8,0 0,8 -8,0 z M 104,240 l 8,0 0,8 -8,0 z M 112,240 l 8,0 0,8 -8,0 z M 120,240 l 8,0 0,8 -8,0 z M 152,240 l 8,0 0,8 -8,0 z M 176,240 l 8,0 0,8 -8,0 z M 192,240 l 8,0 0,8 -8,0 z M 208,240 l 8,0 0,8 -8,0 z M 224,240 l 8,0 0,8 -8,0 z M 240,240 l 8,0 0,8 -8,0 z M 256,240 l 8,0 0,8 -8,0 z M 264,240 l 8,0 0,8 -8,0 z M 272,240 l 8,0 0,8 -8,0 z M 280,240 l 8,0 0,8 -8,0 z M 288,240 l 8,0 0,8 -8,0 z M 0,248 l 8,0 0,8 -8,0 z M 48,248 l 8,0 0,8 -8,0 z M 72,248 l 8,0 0,8 -8,0 z M 80,248 l 8,0 0,8 -8,0 z M 96,248 l 8,0 0,8 -8,0 z M 104,248 l 8,0 0,8 -8,0 z M 120,248 l 8,0 0,8 -8,0 z M 128,248 l 8,0 0,8 -8,0 z M 136,248 l 8,0 0,8 -8,0 z M 144,248 l 8,0 0,8 -8,0 z M 160,248 l 8,0 0,8 -8,0 z M 168,248 l 8,0 0,8 -8,0 z M 216,248 l 8,0 0,8 -8,0 z M 224,248 l 8,0 0,8 -8,0 z M 256,248 l 8,0 0,8 -8,0 z M 0,256 l 8,0 0,8 -8,0 z M 16,256 l 8,0 0,8 -8,0 z M 24,256 l 8,0 0,8 -8,0 z M 32,256 l 8,0 0,8 -8,0 z M 48,256 l 8,0 0,8 -8,0 z M 64,256 l 8,0 0,8 -8,0 z M 72,256 l 8,0 0,8 -8,0 z M 96,256 l 8,0 0,8 -8,0 z M 112,256 l 8,0 0,8 -8,0 z M 136,256 l 8,0 0,8 -8,0 z M 144,256 l 8,0 0,8 -8,0 z M 152,256 l 8,0 0,8 -8,0 z M 168,256 l 8,0 0,8 -8,0 z M 176,256 l 8,0 0,8 -8,0 z M 200,256 l 8,0 0,8 -8,0 z M 216,256 l 8,0 0,8 -8,0 z M 224,256 l 8,0 0,8 -8,0 z M 232,256 l 8,0 0,8 -8,0 z M 240,256 l 8,0 0,8 -8,0 z M 248,256 l 8,0 0,8 -8,0 z M 256,256 l 8,0 0,8 -8,0 z M 264,256 l 8,0 0,8 -8,0 z M 272,256 l 8,0 0,8 -8,0 z M 280,256 l 8,0 0,8 -8,0 z M 0,264 l 8,0 0,8 -8,0 z M 16,264 l 8,0 0,8 -8,0 z M 24,264 l 8,0 0,8 -8,0 z M 32,264 l 8,0 0,8 -8,0 z M 48,264 l 8,0 0,8 -8,0 z M 64,264 l 8,0 0,8 -8,0 z M 72,264 l 8,0 0,8 -8,0 z M 80,264 l 8,0 0,8 -8,0 z M 120,264 l 8,0 0,8 -8,0 z M 128,264 l 8,0 0,8 -8,0 z M 136,264 l 8,0 0,8 -8,0 z M 144,264 l 8,0 0,8 -8,0 z M 184,264 l 8,0 0,8 -8,0 z M 200,264 l 8,0 0,8 -8,0 z M 208,264 l 8,0 0,8 -8,0 z M 224,264 l 8,0 0,8 -8,0 z M 232,264 l 8,0 0,8 -8,0 z M 240,264 l 8,0 0,8 -8,0 z M 256,264 l 8,0 0,8 -8,0 z M 264,264 l 8,0 0,8 -8,0 z M 0,272 l 8,0 0,8 -8,0 z M 16,272 l 8,0 0,8 -8,0 z M 24,272 l 8,0 0,8 -8,0 z M 32,272 l 8,0 0,8 -8,0 z M 48,272 l 8,0 0,8 -8,0 z M 64,272 l 8,0 0,8 -8,0 z M 88,272 l 8,0 0,8 -8,0 z M 96,272 l 8,0 0,8 -8,0 z M 128,272 l 8,0 0,8 -8,0 z M 152,272 l 8,0 0,8 -8,0 z M 160,272 l 8,0 0,8 -8,0 z M 168,272 l 8,0 0,8 -8,0 z M 176,272 l 8,0 0,8 -8,0 z M 192,272 l 8,0 0,8 -8,0 z M 208,272 l 8,0 0,8 -8,0 z M 224,272 l 8,0 0,8 -8,0 z M 248,272 l 8,0 0,8 -8,0 z M 272,272 l 8,0 0,8 -8,0 z M 288,272 l 8,0 0,8 -8,0 z M 0,280 l 8,0 0,8 -8,0 z M 48,280 l 8,0 0,8 -8,0 z M 64,280 l 8,0 0,8 -8,0 z M 72,280 l 8,0 0,8 -8,0 z M 80,280 l 8,0 0,8 -8,0 z M 88,280 l 8,0 0,8 -8,0 z M 112,280 l 8,0 0,8 -8,0 z M 120,280 l 8,0 0,8 -8,0 z M 128,280 l 8,0 0,8 -8,0 z M 136,280 l 8,0 0,8 -8,0 z M 160,280 l 8,0 0,8 -8,0 z M 168,280 l 8,0 0,8 -8,0 z M 192,280 l 8,0 0,8 -8,0 z M 208,280 l 8,0 0,8 -8,0 z M 216,280 l 8,0 0,8 -8,0 z M 224,280 l 8,0 0,8 -8,0 z M 288,280 l 8,0 0,8 -8,0 z M 0,288 l 8,0 0,8 -8,0 z M 8,288 l 8,0 0,8 -8,0 z M 16,288 l 8,0 0,8 -8,0 z M 24,288 l 8,0 0,8 -8,0 z M 32,288 l 8,0 0,8 -8,0 z M 40,288 l 8,0 0,8 -8,0 z M 48,288 l 8,0 0,8 -8,0 z M 64,288 l 8,0 0,8 -8,0 z M 88,288 l 8,0 0,8 -8,0 z M 120,288 l 8,0 0,8 -8,0 z M 144,288 l 8,0 0,8 -8,0 z M 152,288 l 8,0 0,8 -8,0 z M 176,288 l 8,0 0,8 -8,0 z M 184,288 l 8,0 0,8 -8,0 z M 192,288 l 8,0 0,8 -8,0 z M 200,288 l 8,0 0,8 -8,0 z M 208,288 l 8,0 0,8 -8,0 z M 232,288 l 8,0 0,8 -8,0 z M 240,288 l 8,0 0,8 -8,0 z M 248,288 l 8,0 0,8 -8,0 z M 256,288 l 8,0 0,8 -8,0 z M 264,288 l 8,0 0,8 -8,0 z M 272,288 l 8,0 0,8 -8,0 z M 280,288 l 8,0 0,8 -8,0 z M 288,288 l 8,0 0,8 -8,0 z " />
	</g>
</svg>
