<svg xmlns="http://www.w3.org/2000/svg" width="256" height="256" viewBox="0 0 256 256" role="img" aria-label="Coffee Loyalty">
  <defs>
    <linearGradient id="bg" x1="0" y1="0" x2="1" y2="1">
      <stop offset="0" stop-color="#0e00a8"/>
      <stop offset="1" stop-color="#4335df"/>
    </linearGradient>
  </defs>
  <rect width="256" height="256" rx="56" fill="url(#bg)"/>
  <!-- steam -->
  <g fill="none" stroke="#eae8ff" stroke-width="7" stroke-linecap="round" opacity="0.9">
    <path d="M104 60 q-12 -14 0 -28"/>
    <path d="M128 60 q-12 -14 0 -28"/>
    <path d="M152 60 q-12 -14 0 -28"/>
  </g>
  <!-- cup -->
  <path d="M70 96 h96 v44 a48 48 0 0 1 -48 48 a48 48 0 0 1 -48 -48 z" fill="#ffffff"/>
  <!-- handle -->
  <path d="M166 104 h18 a26 26 0 0 1 0 52 h-10" fill="none" stroke="#ffffff" stroke-width="14"/>
  <!-- saucer -->
  <rect x="60" y="196" width="116" height="14" rx="7" fill="#ffffff"/>
</svg>
